<?xml version="1.0" encoding="UTF-8"?>
<svg xmlns="http://www.w3.org/2000/svg" xmlns:xlink="http://www.w3.org/1999/xlink"
     width="720" height="200" viewBox="-100 -100 720 200">
<defs>
<linearGradient x1="60.0" y1="-0.0" x2="-60.0" y2="-7.34788079488412e-15" gradientUnits="userSpaceOnUse" id="d0">
<stop offset="0" stop-color="#FFB6C1" />
<stop offset="1" stop-color="#FFD700" />
</linearGradient>
</defs>
<rect x="-100" y="-100" width="720" height="200" fill="#ffffff" fill-opacity="1.0" />
<path d="M49.236607063038065,34.289306276447036 A60,60,0,0,0,49.236607063038065,-34.289306276447036 L64.00758918194948,-44.57609815938115 A78.0,78.0,0,0,1,64.00758918194948,44.57609815938115 Z" fill="#FFB6C1" fill-opacity="0.9" />
<path d="M45.567410511853105,-39.03346127675919 A60,60,0,1,0,45.56741051185308,39.03346127675921 L59.23763366540901,50.74349965978698 A78.0,78.0,0,1,1,59.237633665409035,-50.74349965978695 Z" fill="#FFD700" fill-opacity="0.9" />
<path d="M47.26714278051654,32.91773402538915 A57.599999999999994,57.599999999999994,0,0,0,47.26714278051654,32.91773402538915 C28.36028566830992,19.75064041523349,28.36028566830992,19.75064041523349,47.26714278051654,32.91773402538915 A57.599999999999994,57.599999999999994,0,0,0,47.26714278051654,32.91773402538915 C28.36028566830992,19.75064041523349,28.36028566830992,19.75064041523349,47.26714278051654,32.91773402538915 Z" fill="#FFB6C1" fill-opacity="0.6" />
<path d="M43.744714091378974,-37.47212282568882 A57.599999999999994,57.599999999999994,0,0,0,43.744714091378974,-37.47212282568882 C26.246828454827384,-22.483273695413292,26.246828454827384,-22.483273695413292,43.744714091378974,-37.47212282568882 A57.599999999999994,57.599999999999994,0,0,0,43.744714091378974,-37.47212282568882 C26.246828454827384,-22.483273695413292,26.246828454827384,-22.483273695413292,43.744714091378974,-37.47212282568882 Z" fill="#FFD700" fill-opacity="0.6" />
<path d="M47.26714278051654,32.91773402538915 A57.599999999999994,57.599999999999994,0,0,0,47.26714278051654,-32.91773402538915 C28.36028566830992,-19.75064041523349,26.246828454827384,-22.483273695413292,43.744714091378974,-37.47212282568882 A57.599999999999994,57.599999999999994,0,1,0,43.74471409137895,37.47212282568884 C26.24682845482737,22.483273695413306,28.36028566830992,19.75064041523349,47.26714278051654,32.91773402538915 Z" fill="url(#d0)" fill-opacity="0.6" />
<text x="84.0" y="0" font-size="100" text-anchor="start" dominant-baseline="middle" transform="rotate(-0.000000)" font-family="Arial">OpenChord</text>
</svg>